<?xml version="1.0" encoding="utf-8"?>
<!-- Generator: Adobe Illustrator 21.1.0, SVG Export Plug-In . SVG Version: 6.00 Build 0)  -->
<svg version="1.1" id="Laag_1" xmlns="http://www.w3.org/2000/svg" xmlns:xlink="http://www.w3.org/1999/xlink" x="0px" y="0px"
	 viewBox="0 0 462 527.2" style="enable-background:new 0 0 462 527.2;" xml:space="preserve">
<style type="text/css">
	.st0{fill:#4F1C21;}
	.st1{fill:#4F1C21;stroke:#F2D6A2;stroke-width:15;stroke-miterlimit:10;}
	.st2{fill:#FBCB9A;}
	.st3{fill:url(#SVGID_1_);}
	.st4{fill:#206E76;stroke:#000000;stroke-width:0.25;stroke-miterlimit:10;}
	.st5{fill:none;stroke:#000000;stroke-miterlimit:10;}
	.st6{fill:none;stroke:#000000;stroke-width:0.25;stroke-miterlimit:10;}
	.st7{fill:#FFFFFF;stroke:#000000;stroke-width:0.25;stroke-miterlimit:10;}
	.st8{fill:#816521;}
	.st9{fill:none;stroke:#000000;stroke-width:0.75;stroke-miterlimit:10;}
	.st10{fill:url(#SVGID_2_);}
	.st11{fill:none;stroke:#A26F13;stroke-miterlimit:10;}
	.st12{fill:#010202;stroke:#000000;stroke-width:0.25;stroke-miterlimit:10;}
	.st13{fill:#FFFFFF;}
	.st14{fill:url(#SVGID_3_);}
	.st15{fill:url(#SVGID_4_);}
</style>
<ellipse class="st0" cx="226.5" cy="271.9" rx="210.3" ry="242.8"/>
<ellipse class="st1" cx="230.8" cy="263.9" rx="222.3" ry="253.7"/>
<polygon class="st2" points="274.3,373.2 262.9,375.8 219.8,306.2 293.8,315.9 "/>
<linearGradient id="SVGID_1_" gradientUnits="userSpaceOnUse" x1="206.9187" y1="371.1512" x2="206.9187" y2="83.5198">
	<stop  offset="2.193510e-02" style="stop-color:#000000"/>
	<stop  offset="0.4956" style="stop-color:#907126"/>
	<stop  offset="0.9987" style="stop-color:#1C1207"/>
</linearGradient>
<path class="st3" d="M314.2,384.8c-6.2-0.8-24.7-12.1-25.9-8.8c-1.2,3.4-17.5,4.6-17.7,3s-3.6-4-3.6-4s8-42.2,11.1-45.8l2.1-9.1
	c15.6-5.1,20.9-17.5,23-22.3l10.5-11.1l1.6-46.4l-2.2-42c0,0-5.7-28.9-24.3-41.7c-6.7-4.6-26.8-10.5-39.6-9.3
	c-2.1,0.9-3.5,1.3-3.5,1.3c4.9,4.9-44.1,22.9-66.4,88.7c0,0,4.7,45.5,36.4,61.8c0,0,21.4,21.2,21.5,23.5c0.1,2.3,10.1,9.3,9.7,13.5
	c-0.4,4.2,1.7,13.7,4.5,15.5c2.7,1.8,12.3,12.9,12.3,15.3c0,2.4,3.4,8,3.4,8l-13.1,8.6c0,0-44,7.2-51.8,0
	c-7.8-7.2-21.3-9.4-21.3-9.4s-13.7-8.4-13.7-9.8c0-1.4-10.8-10.4-13.5-9.6c-2.8,0.8-29.7-3.6-35.2,1.6c-5.6,5.2-12.9,10-13.7,11.7
	c-0.8,1.8-8.2-24.9-6-32.1c2.2-7.2-27.3,12.7-27.7,8.6c-0.4-4,2.4-8.8,0-13c-2.4-4.2-3.4-9.1-3.4-9.1c29.4-1.2,42.3-32.9,57-63
	c11.3-23.1,23.4-64.7,28.3-82.6c1.7-6.2,4.3-12.1,7.9-17.4c44.8-67.6,96.9-60.4,96.9-60.4s1.3,0.5,3.1,1.3c0,0,0,0,0,0l0,0
	c0,0,3.1,1.9,5.1,2.8c2,0.9,7.3,0.7,9.1,6.4c0,0,11.3,6.2,13.8,9.4c2.5,3.2,5.3,9.4,8.1,10.6c2.8,1.2,5.4,6.6,5.4,6.6
	s15.5,7.8,20.9,16.7c1.2,2,2,4,2.6,6c2.1,6.7,6.5,12.2,12.3,16.2c0.3,0.2,0.6,0.5,0.6,0.7c0.4,1.8,6,17.9,3.6,29.3
	c-2.4,11.4-3,20.9-9,29.1c-6,8.2-13.7,17.9-10.7,20.1c3,2.2,10.9,8.8,10.2,13.1c-0.8,4.4,15.7,13.5,7.6,27.7
	c-8.2,14.1-15.1,26.1-12.1,28.7c3,2.6-9.8,16.9-6.4,22.5c3.4,5.6,21.7,32.8,24.3,34.4C348.7,382.6,320.4,385.6,314.2,384.8z"/>
<path class="st2" d="M240.7,150c0,0,53.1-16.4,64.6,19.6c7.7,24.4,9.4,36.4,9.7,41.6c0.1,2.5,0.6,5,1.3,7.4
	c1.2,3.8,2.7,9.8,2.9,15.6c0,0.5,0,1,0.1,1.5c0.2,7.8-0.6,15.5-2.4,23.1c-1.2,5.1-2.5,10.9-2.3,12.9c0.4,3.9,1.8,20-9.6,34.6
	c-3.4,4.4-16,10.3-16.8,10.6c-12.6,4.3-26.2,4.3-39,0.8l-20.1-5.6c-14.4-4-27.2-12.8-35.8-25c-2.3-3.4-4.3-6.8-5.4-10
	c0,0-12.1,1.1-22.1-7.8s-12.8-23.2-8.9-37.8c3.9-14.6,22.5,6.1,22.5,6.1S181.9,164.3,240.7,150z"/>
<path class="st4" d="M249.5,223.8c0,0-6.8-6.2-12.2-6.2c-5.4,0.1-21.5,6.6-21.5,6.6s12.4,2.9,14.6,2.4
	C232.6,226.1,246.9,222.2,249.5,223.8z"/>
<path class="st5" d="M284.4,259.1"/>
<path class="st5" d="M285.9,243.6"/>
<path class="st6" d="M281.1,207c0,0-7.1,5.6-3.8,14.7c2.1,5.9,5,13.3,7.3,17.6c1.7,3.2,4.4,8,4.2,12.9c-0.2,3.7-5.5,6-5.5,6
	l-0.6-1.7c0,0,2.5-1.3,2.3-3c-0.3-1.7-1.1-1-2.7,0.3c-1.6,1.3-2.6,2.2-4.6,2.7c-2,0.5-4.2-2.3-4.2-2.3c-0.6-0.3-1.2-0.5-2.3-0.5
	c-2.8,0.1-5.3,3.7-2,3.8c0,0-4.8,3.8-9.4,1.5c-4.6-2.3,0-13.2,0-13.2"/>
<path class="st6" d="M230.8,263.9"/>
<path class="st7" d="M280.3,220.2c0,0,5.1-6.3,11.9-7c6.9-0.7,11,5.1,11,5.1s-2.9,2.2-4.2,2.6c-1.3,0.4-13.5-1.3-13.5-1.3
	S280.7,220.8,280.3,220.2z"/>
<g>
	<path class="st7" d="M226,220.5c-5.3,1.8-10.3,3.7-10.3,3.7s10.2,2.3,13.7,2.4c-2.3-0.7-3.9-2.9-3.6-5.3
		C225.9,221.1,226,220.8,226,220.5"/>
	<path class="st7" d="M237.2,217.8c-0.7,0-1.7,0.1-2.7,0.3c1.2,1,1.9,2.6,1.8,4.2c-0.1,1.3-0.7,2.4-1.7,3.2c5.1-1.2,13-2.8,14.8-1.7
		C249.5,223.9,242.6,217.7,237.2,217.8z"/>
</g>
<ellipse transform="matrix(9.622849e-02 -0.9954 0.9954 9.622849e-02 -12.0026 432.0727)" class="st7" cx="231.9" cy="222.6" rx="1.5" ry="1.5"/>
<path class="st8" d="M315.3,209.5l-11.6-3c-3.5-1.3-15.5,1.7-15.5,1.7l-5.6-2.7l11.8-2.3c3-1,8.1-2.4,11.2-1.4l0,0
	c4.6,1.5,8.8,4.3,8.8,4.3L315.3,209.5z"/>
<path class="st8" d="M255.7,208.8l-9.3,3.2c0,0-5.6,0.3-7.4,1.1s-26.2,5.4-26.2,5.4l-7.5,1.4l15.7-9.8c3.5-2.7,8.6-3.2,12.6-3.1
	L255.7,208.8z"/>
<path class="st9" d="M276.7,177.8"/>
<linearGradient id="SVGID_2_" gradientUnits="userSpaceOnUse" x1="221.4602" y1="329.0102" x2="221.4602" y2="101.7429">
	<stop  offset="2.193510e-02" style="stop-color:#000000"/>
	<stop  offset="0.4956" style="stop-color:#816521"/>
	<stop  offset="0.9987" style="stop-color:#1C1207"/>
</linearGradient>
<path class="st10" d="M251.4,147.3c0,0-9.4-0.6-12.4,0.5c-5.5,1.9-8.6,0.7-11.2,4.9c-1.4,2.2,10.1,58.1,7.1,66.5
	c-3,8.4-24.7,60.4-43.7,78.7S181,324.2,181,324.2s1.5,2,6.2-3.7s10.9-9.6,10.9-9.6s-22,29.1-24.2,13.7c-2.2-15.5-1.5-32.6,1.7-38.3
	c3.2-5.7,21.7-67.3,21.7-67.3s7.6-24.2,14.5-41.5c4.3-10.8,5.1-32,5-46.3c-0.1-21.1,21.6-35.4,40.8-26.8c2.8,1.2,4.4,2.4,4.4,2.4
	c8.3,38.2,8.3,39.6,8.3,39.6L251.4,147.3z"/>
<path class="st11" d="M172.6,243c0,0-6.8-9.5-8.3-7.9c-0.6,0.6-2.1,3-2.4,6.5c-0.8,11.3,5.7,21.8,15.9,26.6l0.8,0.4"/>
<path class="st6" d="M281.3,218.9c0,0,1.4-0.2,0.9,1.4"/>
<path class="st4" d="M292.3,213.2c-2.8,0.3-5.2,1.5-7.2,2.8c0,0.2,0,0.4,0,0.6c0,1.2,0.5,2.3,1.3,3.2c1.3,0.2,4.3,0.6,7.1,0.9
	c1.5-0.9,2.4-2.4,2.4-4c0-1.3-0.6-2.5-1.5-3.4C293.7,213.2,293,213.1,292.3,213.2z"/>
<circle class="st12" cx="290.4" cy="217.1" r="1.5"/>
<polygon class="st13" points="266,273.4 261.2,281.3 285.7,283.1 287.2,273.4 "/>
<g>
	<linearGradient id="SVGID_3_" gradientUnits="userSpaceOnUse" x1="273.1973" y1="282.6189" x2="273.1973" y2="266.8768">
		<stop  offset="0" style="stop-color:#33151A"/>
		<stop  offset="1" style="stop-color:#5B1C20"/>
	</linearGradient>
	<path class="st14" d="M251.4,282.6c4.9-1.8,12.1-8.5,17.4-13.6c0,0,2.6-2.4,9.6-0.8c0,0,1.5-1.7,4.9-1.4c3.4,0.3,9.3,4,11.5,11.7
		l0.3,1l-9.3-1.2l-0.5-0.1c0,0-1.5-2-2.8-2.6c-1.4-0.6-9.1,0-9.1,0s-3.8-0.2-6.1,1.6S265,280.6,251.4,282.6z"/>
	<linearGradient id="SVGID_4_" gradientUnits="userSpaceOnUse" x1="262.8483" y1="271.173" x2="285.8751" y2="294.1998">
		<stop  offset="0" style="stop-color:#33151A"/>
		<stop  offset="1" style="stop-color:#5B1C20"/>
	</linearGradient>
	<path class="st15" d="M295,279.6c0,0,2.3,1.2,2,2.6c-0.3,1.4-6.5,9-12.7,7.8c-6.2-1.2-12.1,0.7-12.1,0.7s-8.2,0.5-13.2-1
		c-5-1.4-7.7-7.1-7.7-7.1l10.7-2.2c0,0,18.9,0.3,23.1-2.1L295,279.6z"/>
</g>
</svg>
