<?xml version="1.0" encoding="utf-8"?>
<!-- Generator: Adobe Illustrator 22.0.1, SVG Export Plug-In . SVG Version: 6.00 Build 0)  -->
<svg version="1.1" id="Layer_1" xmlns="http://www.w3.org/2000/svg" xmlns:xlink="http://www.w3.org/1999/xlink" x="0px" y="0px"
	 viewBox="0 0 250 250" style="enable-background:new 0 0 250 250;" xml:space="preserve">
<style type="text/css">
	.st0{fill:none;stroke:#242939;stroke-miterlimit:10;}
</style>
<rect x="-0.5" class="st0" width="25" height="25"/>
<rect x="24.5" class="st0" width="25" height="25"/>
<rect x="49.5" class="st0" width="25" height="25"/>
<rect x="74.5" class="st0" width="25" height="25"/>
<rect x="99.5" class="st0" width="25" height="25"/>
<rect x="124.5" class="st0" width="25" height="25"/>
<rect x="149.5" class="st0" width="25" height="25"/>
<rect x="174.5" class="st0" width="25" height="25"/>
<rect x="199.5" class="st0" width="25" height="25"/>
<rect x="224.5" class="st0" width="25" height="25"/>
<rect x="-0.5" y="25" class="st0" width="25" height="25"/>
<rect x="24.5" y="25" class="st0" width="25" height="25"/>
<rect x="49.5" y="25" class="st0" width="25" height="25"/>
<rect x="74.5" y="25" class="st0" width="25" height="25"/>
<rect x="99.5" y="25" class="st0" width="25" height="25"/>
<rect x="124.5" y="25" class="st0" width="25" height="25"/>
<rect x="149.5" y="25" class="st0" width="25" height="25"/>
<rect x="174.5" y="25" class="st0" width="25" height="25"/>
<rect x="199.5" y="25" class="st0" width="25" height="25"/>
<rect x="224.5" y="25" class="st0" width="25" height="25"/>
<rect x="-0.5" y="50" class="st0" width="25" height="25"/>
<rect x="24.5" y="50" class="st0" width="25" height="25"/>
<rect x="49.5" y="50" class="st0" width="25" height="25"/>
<rect x="74.5" y="50" class="st0" width="25" height="25"/>
<rect x="99.5" y="50" class="st0" width="25" height="25"/>
<rect x="124.5" y="50" class="st0" width="25" height="25"/>
<rect x="149.5" y="50" class="st0" width="25" height="25"/>
<rect x="174.5" y="50" class="st0" width="25" height="25"/>
<rect x="199.5" y="50" class="st0" width="25" height="25"/>
<rect x="224.5" y="50" class="st0" width="25" height="25"/>
<rect x="-0.5" y="75" class="st0" width="25" height="25"/>
<rect x="24.5" y="75" class="st0" width="25" height="25"/>
<rect x="49.5" y="75" class="st0" width="25" height="25"/>
<rect x="74.5" y="75" class="st0" width="25" height="25"/>
<rect x="99.5" y="75" class="st0" width="25" height="25"/>
<rect x="124.5" y="75" class="st0" width="25" height="25"/>
<rect x="149.5" y="75" class="st0" width="25" height="25"/>
<rect x="174.5" y="75" class="st0" width="25" height="25"/>
<rect x="199.5" y="75" class="st0" width="25" height="25"/>
<rect x="224.5" y="75" class="st0" width="25" height="25"/>
<rect x="-0.5" y="100" class="st0" width="25" height="25"/>
<rect x="24.5" y="100" class="st0" width="25" height="25"/>
<rect x="49.5" y="100" class="st0" width="25" height="25"/>
<rect x="74.5" y="100" class="st0" width="25" height="25"/>
<rect x="99.5" y="100" class="st0" width="25" height="25"/>
<rect x="124.5" y="100" class="st0" width="25" height="25"/>
<rect x="149.5" y="100" class="st0" width="25" height="25"/>
<rect x="174.5" y="100" class="st0" width="25" height="25"/>
<rect x="199.5" y="100" class="st0" width="25" height="25"/>
<rect x="224.5" y="100" class="st0" width="25" height="25"/>
<rect x="-0.5" y="125" class="st0" width="25" height="25"/>
<rect x="24.5" y="125" class="st0" width="25" height="25"/>
<rect x="49.5" y="125" class="st0" width="25" height="25"/>
<rect x="74.5" y="125" class="st0" width="25" height="25"/>
<rect x="99.5" y="125" class="st0" width="25" height="25"/>
<rect x="124.5" y="125" class="st0" width="25" height="25"/>
<rect x="149.5" y="125" class="st0" width="25" height="25"/>
<rect x="174.5" y="125" class="st0" width="25" height="25"/>
<rect x="199.5" y="125" class="st0" width="25" height="25"/>
<rect x="224.5" y="125" class="st0" width="25" height="25"/>
<rect x="-0.5" y="150" class="st0" width="25" height="25"/>
<rect x="24.5" y="150" class="st0" width="25" height="25"/>
<rect x="49.5" y="150" class="st0" width="25" height="25"/>
<rect x="74.5" y="150" class="st0" width="25" height="25"/>
<rect x="99.5" y="150" class="st0" width="25" height="25"/>
<rect x="124.5" y="150" class="st0" width="25" height="25"/>
<rect x="149.5" y="150" class="st0" width="25" height="25"/>
<rect x="174.5" y="150" class="st0" width="25" height="25"/>
<rect x="199.5" y="150" class="st0" width="25" height="25"/>
<rect x="224.5" y="150" class="st0" width="25" height="25"/>
<rect x="-0.5" y="175" class="st0" width="25" height="25"/>
<rect x="24.5" y="175" class="st0" width="25" height="25"/>
<rect x="49.5" y="175" class="st0" width="25" height="25"/>
<rect x="74.5" y="175" class="st0" width="25" height="25"/>
<rect x="99.5" y="175" class="st0" width="25" height="25"/>
<rect x="124.5" y="175" class="st0" width="25" height="25"/>
<rect x="149.5" y="175" class="st0" width="25" height="25"/>
<rect x="174.5" y="175" class="st0" width="25" height="25"/>
<rect x="199.5" y="175" class="st0" width="25" height="25"/>
<rect x="224.5" y="175" class="st0" width="25" height="25"/>
<rect x="-0.5" y="200" class="st0" width="25" height="25"/>
<rect x="24.5" y="200" class="st0" width="25" height="25"/>
<rect x="49.5" y="200" class="st0" width="25" height="25"/>
<rect x="74.5" y="200" class="st0" width="25" height="25"/>
<rect x="99.5" y="200" class="st0" width="25" height="25"/>
<rect x="124.5" y="200" class="st0" width="25" height="25"/>
<rect x="149.5" y="200" class="st0" width="25" height="25"/>
<rect x="174.5" y="200" class="st0" width="25" height="25"/>
<rect x="199.5" y="200" class="st0" width="25" height="25"/>
<rect x="224.5" y="200" class="st0" width="25" height="25"/>
<rect x="-0.5" y="225" class="st0" width="25" height="25"/>
<rect x="24.5" y="225" class="st0" width="25" height="25"/>
<rect x="49.5" y="225" class="st0" width="25" height="25"/>
<rect x="74.5" y="225" class="st0" width="25" height="25"/>
<rect x="99.5" y="225" class="st0" width="25" height="25"/>
<rect x="124.5" y="225" class="st0" width="25" height="25"/>
<rect x="149.5" y="225" class="st0" width="25" height="25"/>
<rect x="174.5" y="225" class="st0" width="25" height="25"/>
<rect x="199.5" y="225" class="st0" width="25" height="25"/>
<rect x="224.5" y="225" class="st0" width="25" height="25"/>
</svg>
